HIERARCHY
ROOT root
{
	OFFSET 0.000000 0.000000 0.000000
	CHANNELS 6 Xposition Yposition Zposition Zrotation Yrotation Xrotation
	JOINT lhip
	{
		OFFSET 0.058581 -0.082280 -0.017664
		CHANNELS 3 Zrotation Yrotation Xrotation
		JOINT lknee
		{
			OFFSET 0.043451 -0.386469 0.008037
			CHANNELS 3 Zrotation Yrotation Xrotation
			JOINT lankle
			{
				OFFSET -0.014790 -0.426874 -0.037428
				CHANNELS 3 Zrotation Yrotation Xrotation
				JOINT ltoe
				{
					OFFSET 0.041054 -0.060286 0.122042
					CHANNELS 3 Zrotation Yrotation Xrotation
					End Site
					{
						OFFSET 0.000000 0.000000 0.000000
					}
				}
			}
		}
	}
	JOINT rhip
	{
		OFFSET -0.060310 -0.090513 -0.013543
		CHANNELS 3 Zrotation Yrotation Xrotation
		JOINT rknee
		{
			OFFSET -0.043257 -0.383688 -0.004843
			CHANNELS 3 Zrotation Yrotation Xrotation
			JOINT rankle
			{
				OFFSET 0.019056 -0.420046 -0.034562
				CHANNELS 3 Zrotation Yrotation Xrotation
				JOINT rtoe
				{
					OFFSET -0.034840 -0.062106 0.130323
					CHANNELS 3 Zrotation Yrotation Xrotation
					End Site
					{
						OFFSET 0.000000 0.000000 0.000000
					}
				}
			}
		}
	}
	JOINT lowerback
	{
		OFFSET 0.004439 0.124404 -0.038385
		CHANNELS 3 Zrotation Yrotation Xrotation
		JOINT upperback
		{
			OFFSET 0.004488 0.137956 0.026820
			CHANNELS 3 Zrotation Yrotation Xrotation
			JOINT chest
			{
				OFFSET -0.002265 0.056032 0.002855
				CHANNELS 3 Zrotation Yrotation Xrotation
				JOINT lowerneck
				{
					OFFSET -0.013390 0.211636 -0.033468
					CHANNELS 3 Zrotation Yrotation Xrotation
					JOINT upperneck
					{
						OFFSET 0.010113 0.088937 0.050410
						CHANNELS 3 Zrotation Yrotation Xrotation
						End Site
						{
							OFFSET 0.000000 0.000000 0.000000
						}
					}
				}
				JOINT lclavicle
				{
					OFFSET 0.071702 0.114000 -0.018898
					CHANNELS 3 Zrotation Yrotation Xrotation
					JOINT lshoulder
					{
						OFFSET 0.122921 0.045205 -0.019046
						CHANNELS 3 Zrotation Yrotation Xrotation
						JOINT lelbow
						{
							OFFSET 0.255332 -0.015649 -0.022946
							CHANNELS 3 Zrotation Yrotation Xrotation
							JOINT lwrist
							{
								OFFSET 0.265709 0.012698 -0.007375
								CHANNELS 3 Zrotation Yrotation Xrotation
								End Site
								{
									OFFSET 0.000000 0.000000 0.000000
								}
							}
						}
					}
				}
				JOINT rclavicle
				{
					OFFSET -0.082954 0.112472 -0.023707
					CHANNELS 3 Zrotation Yrotation Xrotation
					JOINT rshoulder
					{
						OFFSET -0.113228 0.046853 -0.008472
						CHANNELS 3 Zrotation Yrotation Xrotation
						JOINT relbow
						{
							OFFSET -0.260127 -0.014369 -0.031269
							CHANNELS 3 Zrotation Yrotation Xrotation
							JOINT rwrist
							{
								OFFSET -0.269108 0.006794 -0.006027
								CHANNELS 3 Zrotation Yrotation Xrotation
								End Site
								{
									OFFSET 0.000000 0.000000 0.000000
								}
							}
						}
					}
				}
			}
		}
	}
}
MOTION
Frames: 7
Frame Time: 0.033333
0.019013 0.809744 0.984815 80.598192 -0.798454 84.292681 2.783061 5.818993 5.000360 -3.511993 2.027561 8.480473 5.085130 11.674526 -16.197294 0.000000 -0.000000 0.000000 -5.179455 -4.370710 -0.043463 1.391085 -1.169233 18.528545 2.697984 -5.805072 -15.698945 0.000000 -0.000000 0.000000 0.615615 -0.039070 -0.319853 1.067300 -1.695883 2.342104 -1.377009 -1.475394 2.748474 2.627826 -13.656029 -3.330782 2.711782 -13.651057 2.293080 -27.318011 12.121925 -1.547904 -65.026183 -6.068350 8.051953 12.874506 -30.103056 0.825117 -7.532804 -1.281312 -17.768107 25.409739 -9.399251 -1.600382 55.316676 -5.802046 14.834408 -7.870810 52.424762 13.035564 15.230000 4.839660 1.461590 
0.019177 0.810485 0.984339 80.483488 -0.797127 84.411390 2.728529 5.660366 4.839414 -3.669545 1.848117 8.531712 5.218266 12.100251 -16.324362 0.000000 -0.000000 0.000000 -5.210779 -4.045397 -0.113458 1.619774 -0.724172 18.417110 2.821941 -6.729457 -15.783541 0.000000 -0.000000 0.000000 0.736151 -0.134577 -0.560884 1.001736 -1.796605 2.357935 -1.410102 -1.499048 2.918295 2.242787 -14.578272 -3.624120 2.713561 -13.934428 3.287575 -27.047332 12.088296 -0.881687 -65.598718 -5.897358 7.439336 13.583932 -29.566865 0.323638 -6.672642 -1.294905 -17.676180 24.494649 -9.332608 -1.479669 55.663273 -6.987043 15.225927 -7.754793 57.519835 14.271476 15.047701 6.177721 -0.212961 
0.018854 0.811018 0.984273 80.404127 -0.718971 84.383767 2.726882 5.634590 4.839019 -3.582951 1.829230 8.649234 5.289202 12.196166 -16.163089 0.000000 -0.000000 0.000000 -5.140821 -3.759527 -0.114451 1.683118 -0.774751 18.435471 2.837736 -6.881844 -15.840591 0.000000 -0.000000 0.000000 0.796337 -0.185231 -0.355884 1.064209 -2.003804 2.220435 -1.368367 -1.722874 3.007272 2.178952 -14.667922 -3.447893 2.917373 -13.654164 2.912249 -26.936855 12.048638 -1.014263 -65.782347 -5.534821 7.135510 13.220837 -27.875146 -0.063143 -4.954542 -1.103373 -17.874900 23.895770 -9.691259 -1.514981 55.011732 -7.812950 16.542158 -5.314231 63.980359 16.909610 11.616047 7.863141 -1.740066 
0.018282 0.811652 0.984311 80.226029 -0.703568 84.517279 2.684678 5.738709 4.608298 -3.589372 1.872792 8.793454 5.367561 12.270053 -16.288903 0.000000 -0.000000 0.000000 -5.135912 -3.723657 -0.411940 1.698368 -0.705332 18.575196 2.728042 -6.803298 -15.801089 0.000000 -0.000000 0.000000 0.849520 -0.100535 -0.507454 1.102392 -2.373609 2.345739 -1.423330 -2.045902 3.090392 2.221472 -14.854854 -3.140790 2.846717 -13.388496 2.986035 -26.958906 11.787172 -0.951513 -65.875347 -4.999150 6.295692 13.593765 -26.019996 -1.355712 -4.081291 -0.607938 -17.180146 22.722182 -10.241540 -1.387382 54.337016 -8.577322 18.127602 2.199330 73.124912 25.879000 9.675964 9.475958 -3.986639 
0.017865 0.812284 0.984187 80.018339 -0.670007 84.546676 2.692528 5.832690 4.620784 -3.556513 2.156988 8.766240 5.374649 12.076628 -16.332291 0.000000 -0.000000 0.000000 -5.157628 -3.609108 -0.460340 1.736045 -0.786753 18.547402 2.734818 -6.679730 -15.620808 0.000000 -0.000000 0.000000 1.031046 -0.117626 -0.562192 1.040617 -2.570815 2.615035 -1.531531 -2.107133 3.003060 2.233176 -14.758883 -2.790719 3.058375 -12.889317 2.966337 -26.981489 11.574903 -0.716604 -65.918382 -4.382575 5.928729 14.133706 -25.649191 -1.876116 -5.043547 -0.948073 -17.449209 21.941718 -10.188647 -1.242591 54.127390 -9.007594 19.007149 10.280165 78.182993 34.782529 10.380206 10.599982 -4.944719 
0.016488 0.813149 0.984458 79.594525 -0.723606 84.492171 2.596294 6.065582 4.762188 -3.598159 2.246406 8.583801 5.536686 12.193116 -16.259976 0.000000 -0.000000 0.000000 -5.198457 -3.259027 -0.624793 1.796326 -0.544472 18.663253 2.565307 -6.753789 -15.743173 0.000000 -0.000000 0.000000 1.123609 -0.223877 -0.305226 0.950583 -2.567586 2.617677 -1.626904 -2.184040 3.069787 2.307987 -14.745430 -2.657727 2.653486 -12.266781 3.684307 -26.827444 11.246704 -0.674088 -65.938580 -3.990742 5.498079 14.104649 -24.406658 -2.209667 -3.941589 -1.031969 -16.802412 21.212500 -9.990744 -1.083139 53.627336 -8.785983 20.293049 33.251363 82.598297 59.366834 9.684975 11.854326 -5.224306 
0.014416 0.814163 0.984534 79.119021 -0.713386 84.582736 2.560168 6.056483 4.729998 -3.675221 2.552473 8.320356 5.580373 12.372844 -16.373043 0.000000 -0.000000 0.000000 -5.205217 -3.011875 -1.095096 1.833805 -0.479747 18.900104 2.679211 -6.628605 -15.690817 0.000000 -0.000000 0.000000 1.221509 -0.165580 -0.066765 1.003043 -2.598438 2.627872 -1.705445 -2.095647 3.188929 2.361532 -14.181757 -2.338115 2.594906 -12.176299 4.834406 -26.915558 10.865494 -0.467947 -65.792405 -3.952693 5.266304 14.017251 -23.443296 -2.590769 -3.187673 -1.537449 -16.354158 21.096301 -9.865825 -0.989379 52.567054 -8.259283 21.220882 70.799001 83.889076 98.750338 9.236347 13.060260 -3.932299 
